<?xml version="1.0" standalone="no"?>
<!DOCTYPE svg PUBLIC "-//W3C//DTD SVG 20010904//EN"
 "http://www.w3.org/TR/2001/REC-SVG-20010904/DTD/svg10.dtd">
<svg version="1.0" xmlns="http://www.w3.org/2000/svg"
 width="512.000000pt" height="512.000000pt" viewBox="0 0 512.000000 512.000000"
 preserveAspectRatio="xMidYMid meet">
<metadata>
Created by potrace 1.14, written by Peter Selinger 2001-2017
</metadata>
<g transform="translate(0.000000,512.000000) scale(0.100000,-0.100000)"
fill="#000000" stroke="none">
<path d="M1605 3304 c-282 -60 -498 -317 -511 -608 l-4 -88 -44 -29 c-25 -17
-71 -59 -104 -94 -193 -206 -226 -525 -80 -773 79 -134 243 -257 397 -297 83
-21 230 -21 314 0 l66 16 83 -40 c108 -53 182 -71 293 -71 123 0 192 15 290
65 82 41 84 41 107 23 12 -10 57 -32 98 -49 64 -28 90 -33 181 -37 81 -3 119
0 164 13 86 24 171 70 224 120 l47 44 345 3 344 3 79 38 c239 114 344 408 228
645 -68 140 -243 252 -393 252 -33 0 -37 3 -48 39 -18 61 -88 158 -145 201
-85 64 -145 83 -262 84 l-101 1 -29 49 c-39 64 -136 154 -209 193 -93 49 -173
66 -285 60 -111 -5 -172 -23 -255 -72 l-60 -36 -15 23 c-8 12 -35 50 -60 83
-148 197 -406 291 -655 239z"/>
</g>
</svg>
